<svg width="1200" height="900" viewBox="0 0 1200 900" fill="none" xmlns="http://www.w3.org/2000/svg">
  <defs>
    <linearGradient id="bg" x1="0" y1="0" x2="1200" y2="900" gradientUnits="userSpaceOnUse">
      <stop stop-color="#FFF7DB"/>
      <stop offset="0.55" stop-color="#FFFDF7"/>
      <stop offset="1" stop-color="#DFF2E1"/>
    </linearGradient>
    <linearGradient id="m" x1="0" y1="0" x2="1" y2="1">
      <stop stop-color="#FFE08A"/>
      <stop offset="0.55" stop-color="#FFC233"/>
      <stop offset="1" stop-color="#F3A400"/>
    </linearGradient>
    <linearGradient id="l" x1="0" y1="0" x2="1" y2="1">
      <stop stop-color="#DFF2E1"/>
      <stop offset="1" stop-color="#2E7D32"/>
    </linearGradient>
  </defs>

  <rect width="1200" height="900" fill="url(#bg)"/>

  <!-- abstract photo-like blocks -->
  <rect x="90" y="110" width="1020" height="540" rx="36" fill="#FFFFFF" opacity="0.55"/>
  <rect x="130" y="150" width="520" height="460" rx="28" fill="url(#l)" opacity="0.25"/>
  <rect x="680" y="150" width="390" height="220" rx="28" fill="url(#m)" opacity="0.35"/>
  <rect x="680" y="390" width="390" height="220" rx="28" fill="#151515" opacity="0.06"/>

  <!-- mango accent -->
  <path d="M820 445 C805 400, 845 355, 900 375 C965 399, 965 468, 910 505 C855 538, 834 490, 820 445 Z" fill="url(#m)" opacity="0.65"/>

  <g opacity="0.2" fill="#151515">
    <circle cx="170" cy="730" r="3"/>
    <circle cx="220" cy="770" r="2"/>
    <circle cx="260" cy="720" r="2"/>
    <circle cx="310" cy="780" r="3"/>
  </g>
</svg>
